<svg width="3000" height="674" viewBox="0 0 3000 674" fill="none" xmlns="http://www.w3.org/2000/svg">
<path d="M483.775 437.577V234.509L294.959 62.8403L106.122 234.488V437.556L294.959 609.204L483.796 437.556L483.775 437.577ZM294.959 230.775L371.898 300.715V371.349L294.959 441.29L218.02 371.349V300.715L294.959 230.775ZM307.551 563.767V463.876L458.612 326.545V426.437L307.551 563.767ZM458.612 292.513L397.061 348.458V289.575L307.551 208.209V108.298L458.612 245.628V292.513ZM282.367 108.298V208.189L192.836 289.575V348.458L131.285 292.513V245.628L282.367 108.298ZM131.306 326.545L192.857 382.489L259.387 442.983L282.367 463.876V563.767L131.306 426.437V326.545Z" fill="#E5E5E5"/>
<path d="M737.123 167.2L620.408 498.968H660.49L696.367 395.261H842.327L878 498.968H918.082L799.592 167.2H737.123ZM707.388 363.433L769.551 183.706L831.388 363.433H707.388Z" fill="#E5E5E5"/>
<path d="M1023 265.602C1011.59 269.928 1002.27 275.722 995 282.986C987.714 290.269 982.122 298.41 978.204 307.448C976.02 312.467 974.367 317.507 973.163 322.526L969.367 259.135H935.184V498.968H972.918V386.998C972.918 374.43 974.102 362.842 976.449 352.232C978.816 341.623 983.122 332.482 989.408 324.831C995.694 317.16 1004.73 311.284 1016.53 307.163C1028.33 303.041 1043.65 300.981 1062.51 300.981H1074.31V259.135H1063.1C1047.78 259.135 1034.41 261.297 1023.02 265.623L1023 265.602Z" fill="#E5E5E5"/>
<path d="M1309.47 258.543H1261.14L1130.27 391.099V167.2H1091.96V499.56H1130.27V435.373L1177.41 388.855L1265.27 499.56H1311.84L1204.63 362.005L1309.47 258.543Z" fill="#E5E5E5"/>
<path d="M1519 309.815C1509.37 293.309 1496.59 280.639 1480.69 271.805C1464.78 262.97 1446.41 258.543 1425.57 258.543C1401.59 258.543 1381.06 264.052 1363.98 275.049C1346.88 286.046 1333.92 300.879 1325.08 319.547C1316.24 338.215 1311.82 358.741 1311.82 381.122C1311.82 401.545 1315.84 421.295 1323.9 440.351C1331.94 459.407 1344.53 474.934 1361.61 486.91C1378.71 498.907 1400.41 504.885 1426.76 504.885C1446.8 504.885 1464.49 501.253 1479.8 493.99C1495.12 486.727 1507.51 476.607 1516.94 463.651C1526.37 450.695 1532.45 436.148 1535.2 420.051H1498.06C1494.92 436.169 1486.76 448.92 1473.59 458.347C1460.43 467.773 1444.61 472.486 1426.14 472.486C1401.39 472.486 1382.22 464.529 1368.67 448.614C1355.12 432.7 1348.33 410.808 1348.33 382.897H1535.78V374.94C1535.78 372.002 1535.57 369.738 1535.18 368.167C1534 345.764 1528.59 326.321 1518.98 309.835L1519 309.815ZM1349.55 362.25C1350.73 353.62 1352.98 344.969 1356.33 336.318C1359.65 327.688 1364.37 319.914 1370.47 313.039C1376.55 306.163 1384.12 300.654 1393.16 296.533C1402.2 292.411 1412.82 290.351 1425 290.351C1438.76 290.351 1450.14 292.901 1459.18 298.002C1468.22 303.102 1475.49 309.488 1481 317.16C1486.49 324.831 1490.53 332.686 1493.08 340.725C1495.63 348.784 1496.92 355.945 1496.92 362.229H1349.55V362.25Z" fill="#E5E5E5"/>
<path d="M1770.41 315.12C1767.27 304.51 1762.45 294.982 1755.96 286.536C1749.47 278.089 1740.73 271.417 1729.73 266.5C1718.73 261.603 1704.98 259.135 1688.47 259.135C1671.96 259.135 1658.31 261.787 1647.51 267.092C1636.69 272.397 1628.14 278.579 1621.88 285.658C1615.59 292.738 1610.98 299.512 1608.02 306C1605.08 312.488 1603.2 316.711 1602.43 318.67H1601.25L1594.76 259.155H1562.33V498.989H1601.22V385.264C1601.22 368.758 1603.78 353.538 1608.9 339.603C1614 325.668 1622.06 314.467 1633.06 306.02C1644.06 297.573 1658.41 293.35 1676.1 293.35C1693.8 293.35 1706.76 296.982 1716.18 304.245C1725.61 311.529 1732.18 321.73 1735.94 334.89C1739.67 348.05 1741.53 363.27 1741.53 380.551V499.009H1778.08V380.551C1778.08 369.942 1777.59 359.047 1776.61 347.846C1775.63 336.645 1773.57 325.75 1770.43 315.14L1770.41 315.12Z" fill="#E5E5E5"/>
<path d="M1958.45 378.756C1946.27 373.655 1933.39 369.615 1919.84 366.677C1906.29 363.74 1893.51 360.598 1881.53 357.251C1869.53 353.926 1859.71 349.294 1852.06 343.398C1844.39 337.502 1840.57 329.259 1840.57 318.65C1840.57 307.265 1845.96 298.43 1856.78 292.126C1867.57 285.842 1881.43 282.7 1898.33 282.7C1905 282.7 1912.18 283.394 1919.84 284.761C1927.49 286.148 1934.78 288.698 1941.65 292.432C1948.53 296.166 1954.04 301.471 1958.16 308.346C1962.29 315.222 1964.14 324.158 1963.76 335.155H1999.12C1999.9 319.058 1997.35 305.592 1991.47 294.778C1985.57 283.985 1977.61 275.539 1967.59 269.438C1957.57 263.358 1946.57 258.931 1934.59 256.177C1922.59 253.443 1910.92 252.055 1899.51 252.055C1872 252.055 1849.49 257.85 1832.02 269.438C1814.53 281.027 1805.59 296.655 1805.2 316.283C1804.82 332.401 1808.35 344.969 1815.82 353.987C1823.29 363.025 1833.1 370.003 1845.29 374.9C1857.47 379.817 1870.25 383.836 1883.59 386.978C1896.94 390.12 1909.71 393.364 1921.9 396.71C1934.08 400.056 1944 404.769 1951.67 410.849C1959.33 416.95 1963.16 425.682 1963.16 437.067C1963.55 445.718 1961.1 452.981 1955.8 458.877C1950.49 464.774 1943.12 469.099 1933.69 471.833C1924.27 474.587 1913.65 475.954 1901.86 475.954C1885.35 475.954 1872.57 473.302 1863.55 467.997C1854.51 462.693 1848.02 456.511 1844.1 449.431C1840.16 442.351 1837.82 436.087 1837.02 430.579C1836.22 425.09 1835.84 422.132 1835.84 421.744H1799.29C1799.29 427.641 1800.65 434.312 1803.41 441.78C1806.14 449.247 1810.39 456.613 1816.08 463.876C1821.78 471.16 1828.65 477.933 1836.71 484.217C1844.76 490.501 1854.31 495.52 1865.31 499.234C1876.31 502.967 1888.49 504.824 1901.86 504.824C1920.71 504.824 1937.53 502.559 1952.27 498.05C1967 493.541 1978.59 486.462 1987.04 476.832C1995.49 467.202 1999.71 454.736 1999.71 439.413C1999.71 422.907 1995.88 409.952 1988.22 400.526C1980.57 391.1 1970.63 383.836 1958.45 378.715V378.756Z" fill="#E5E5E5"/>
<path d="M2077.51 287.413H2132.92V259.135H2077.51V197.253H2045.08C2045.08 211.801 2044.69 223.389 2043.9 232.02C2043.1 240.67 2041.35 246.852 2038.59 250.586C2035.84 254.32 2031.61 256.686 2025.92 257.666C2020.22 258.645 2012.65 259.135 2003.22 259.135V287.413H2040.94V454.776C2040.94 468.528 2043.88 479.341 2049.78 487.196C2055.67 495.051 2065.69 498.989 2079.84 498.989H2133.47V468.344H2077.47V287.433L2077.51 287.413Z" fill="#E5E5E5"/>
<path d="M2262 258.543C2236.45 258.543 2215.14 263.848 2198.04 274.457C2180.94 285.066 2168.16 299.716 2159.73 318.364C2151.29 337.032 2147.06 358.333 2147.06 382.306C2147.06 406.279 2151.29 426.906 2159.73 445.35C2168.18 463.814 2180.96 478.341 2198.04 488.951C2215.14 499.56 2236.45 504.865 2262 504.865C2287.55 504.865 2309.94 499.458 2326.84 488.665C2343.73 477.872 2356.31 463.243 2364.55 444.758C2372.8 426.294 2376.94 405.483 2376.94 382.306C2376.94 344.989 2367.1 315.038 2347.47 292.432C2327.82 269.846 2299.33 258.543 2262 258.543ZM2333.04 423.825C2328.51 437.781 2320.75 449.267 2309.75 458.306C2298.75 467.344 2282.84 471.853 2262.02 471.853C2241.2 471.853 2226.16 467.344 2214.57 458.306C2202.98 449.267 2195.02 437.781 2190.69 423.825C2186.37 409.89 2184.2 395.649 2184.2 381.102C2184.2 366.555 2186.37 352.232 2190.69 338.093C2195.02 323.954 2202.96 312.365 2214.57 303.327C2226.16 294.288 2241.98 289.779 2262.02 289.779C2282.06 289.779 2298.75 294.309 2309.75 303.327C2320.75 312.365 2328.51 323.954 2333.04 338.093C2337.55 352.232 2339.82 366.575 2339.82 381.102C2339.82 395.629 2337.55 409.89 2333.04 423.825Z" fill="#E5E5E5"/>
<path d="M2609.78 315.12C2606.63 304.51 2601.82 294.982 2595.33 286.536C2588.84 278.089 2580.1 271.417 2569.1 266.5C2558.1 261.603 2544.35 259.135 2527.84 259.135C2511.33 259.135 2497.67 261.787 2486.88 267.092C2476.06 272.397 2467.51 278.579 2461.24 285.658C2454.96 292.738 2450.35 299.512 2447.39 306C2444.45 312.488 2442.57 316.711 2441.8 318.67H2440.61L2434.12 259.155H2401.69V498.989H2440.59V385.264C2440.59 368.758 2443.14 353.538 2448.27 339.603C2453.37 325.668 2461.43 314.467 2472.43 306.02C2483.43 297.573 2497.78 293.35 2515.47 293.35C2533.16 293.35 2546.12 296.982 2555.55 304.245C2564.98 311.529 2571.55 321.73 2575.31 334.89C2579.04 348.05 2580.9 363.27 2580.9 380.551V499.009H2617.45V380.551C2617.45 369.942 2616.96 359.047 2615.98 347.846C2615 336.645 2612.94 325.75 2609.8 315.14L2609.78 315.12Z" fill="#E5E5E5"/>
<path d="M2861.47 374.92C2861.47 371.982 2861.27 369.717 2860.88 368.146C2859.69 345.744 2854.29 326.3 2844.67 309.815C2835.04 293.309 2822.27 280.639 2806.37 271.805C2790.45 262.97 2772.08 258.543 2751.24 258.543C2727.27 258.543 2706.73 264.052 2689.65 275.049C2672.55 286.046 2659.59 300.879 2650.76 319.547C2641.92 338.215 2637.49 358.741 2637.49 381.122C2637.49 401.545 2641.51 421.295 2649.57 440.351C2657.61 459.407 2670.2 474.934 2687.29 486.91C2704.39 498.907 2726.08 504.885 2752.43 504.885C2772.47 504.885 2790.16 501.253 2805.47 493.99C2820.8 486.727 2833.18 476.607 2842.61 463.651C2852.04 450.695 2858.12 436.148 2860.88 420.051H2823.73C2820.59 436.169 2812.43 448.92 2799.27 458.347C2786.1 467.773 2770.29 472.486 2751.82 472.486C2727.06 472.486 2707.9 464.529 2694.35 448.614C2680.8 432.7 2674 410.808 2674 382.897H2861.45V374.94L2861.47 374.92ZM2675.2 362.25C2676.39 353.62 2678.63 344.969 2681.98 336.318C2685.31 327.688 2690.02 319.914 2696.12 313.039C2702.2 306.163 2709.78 300.654 2718.82 296.533C2727.86 292.411 2738.47 290.351 2750.65 290.351C2764.41 290.351 2775.8 292.901 2784.84 298.002C2793.88 303.102 2801.14 309.488 2806.65 317.16C2812.14 324.831 2816.18 332.686 2818.73 340.725C2821.29 348.784 2822.57 355.945 2822.57 362.229H2675.2V362.25Z" fill="#E5E5E5"/>
</svg>
